<svg width="24" height="24" viewBox="0 0 24 24" xmlns="http://www.w3.org/2000/svg">
    <path d="M6.305 16.57a9.375 9.375 0 0 1 2.707-1.324c.96-.29 1.957-.434 2.988-.434s2.027.145 2.988.434c.962.29 1.864.73 2.707 1.324a6.454 6.454 0 0 0 1.22-2.132A7.527 7.527 0 0 0 19.312 12c0-2.031-.711-3.758-2.133-5.18C15.758 5.4 14.03 4.688 12 4.688c-2.031 0-3.758.712-5.18 2.133C5.4 8.242 4.688 9.97 4.688 12c0 .844.133 1.656.399 2.438.265.78.672 1.491 1.22 2.132zM12 13.687c-.938 0-1.734-.328-2.39-.984-.657-.656-.985-1.453-.985-2.39 0-.938.328-1.735.984-2.391.657-.656 1.454-.984 2.391-.984.938 0 1.734.328 2.39.984.657.656.985 1.453.985 2.39 0 .938-.328 1.735-.984 2.391-.657.656-1.454.985-2.391.985zM12 21a8.769 8.769 0 0 1-3.492-.703 9.074 9.074 0 0 1-2.871-1.934 9.074 9.074 0 0 1-1.934-2.871A8.769 8.769 0 0 1 3 12c0-1.25.234-2.418.703-3.504a9.074 9.074 0 0 1 4.805-4.793A8.769 8.769 0 0 1 12 3c1.25 0 2.418.234 3.504.703a9.113 9.113 0 0 1 4.793 4.793A8.747 8.747 0 0 1 21 12a8.769 8.769 0 0 1-.703 3.492 9.074 9.074 0 0 1-4.793 4.805A8.747 8.747 0 0 1 12 21z" fill="#FAFAFA" fill-rule="nonzero"/>
</svg>
